<mxfile host="app.diagrams.net" modified="2024-05-03T16:26:49.014Z" agent="Mozilla/5.0 (X11; Linux x86_64; rv:122.0) Gecko/20100101 Firefox/122.0" etag="z2j7WEnfSw8lrWGYZv_j" version="24.1.0" type="device">
  <diagram name="Page-1" id="6STj4tvZciJd9ykKxBwa">
    <mxGraphModel dx="1434" dy="769" grid="1" gridSize="10" guides="1" tooltips="1" connect="1" arrows="1" fold="1" page="1" pageScale="1" pageWidth="850" pageHeight="1100" math="0" shadow="0">
      <root>
        <mxCell id="0" />
        <mxCell id="1" parent="0" />
        <mxCell id="qnUnbBCkJ-mArxC92wu9-1" value="Extraemos API&lt;br&gt;Copernicus Marine" style="rounded=0;whiteSpace=wrap;html=1;" vertex="1" parent="1">
          <mxGeometry x="70" y="50" width="120" height="60" as="geometry" />
        </mxCell>
        <mxCell id="qnUnbBCkJ-mArxC92wu9-2" value="&lt;div&gt;Transformamos datos&lt;/div&gt;&lt;div&gt;NetCDF -&amp;gt; CSV -&amp;gt; GeoJSON&lt;br&gt;&lt;/div&gt;" style="rounded=0;whiteSpace=wrap;html=1;" vertex="1" parent="1">
          <mxGeometry x="250" y="50" width="160" height="60" as="geometry" />
        </mxCell>
        <mxCell id="qnUnbBCkJ-mArxC92wu9-3" value="Limpiamos datos de tierra" style="rounded=0;whiteSpace=wrap;html=1;" vertex="1" parent="1">
          <mxGeometry x="450" y="50" width="160" height="60" as="geometry" />
        </mxCell>
        <mxCell id="qnUnbBCkJ-mArxC92wu9-4" value="Filtramos puntos por fecha" style="rounded=0;whiteSpace=wrap;html=1;" vertex="1" parent="1">
          <mxGeometry x="650" y="50" width="160" height="60" as="geometry" />
        </mxCell>
        <mxCell id="qnUnbBCkJ-mArxC92wu9-5" value="Filtramos puntos por lonja" style="rounded=0;whiteSpace=wrap;html=1;" vertex="1" parent="1">
          <mxGeometry x="80" y="160" width="160" height="60" as="geometry" />
        </mxCell>
        <mxCell id="qnUnbBCkJ-mArxC92wu9-6" value="Metemos puntos cercanos en datos de lonja" style="rounded=0;whiteSpace=wrap;html=1;" vertex="1" parent="1">
          <mxGeometry x="330" y="160" width="190" height="60" as="geometry" />
        </mxCell>
      </root>
    </mxGraphModel>
  </diagram>
</mxfile>
